<?xml version="1.0" standalone="no"?>
<!DOCTYPE svg PUBLIC "-//W3C//DTD SVG 20010904//EN"
 "http://www.w3.org/TR/2001/REC-SVG-20010904/DTD/svg10.dtd">
<svg version="1.0" xmlns="http://www.w3.org/2000/svg"
 width="640.000000pt" height="640.000000pt" viewBox="0 0 640.000000 640.000000"
 preserveAspectRatio="xMidYMid meet">

<g transform="translate(0.000000,640.000000) scale(0.100000,-0.100000)"
fill="#000000" stroke="none">
<path d="M3175 5095 l-25 -24 0 -239 c0 -226 1 -239 20 -260 27 -29 83 -29
110 -2 19 19 20 33 20 260 l0 241 -25 24 c-13 14 -36 25 -50 25 -14 0 -37 -11
-50 -25z"/>
<path d="M4364 4629 c-10 -4 -86 -75 -168 -158 -138 -138 -150 -153 -150 -187
0 -43 33 -73 78 -74 25 0 55 25 188 158 169 170 178 184 138 234 -21 28 -56
39 -86 27z"/>
<path d="M2012 4610 c-14 -13 -22 -33 -22 -53 0 -27 22 -53 173 -204 140 -141
178 -173 200 -173 39 0 77 41 77 81 0 28 -21 53 -168 201 -154 154 -170 168
-203 168 -22 0 -44 -8 -57 -20z"/>
<path d="M3130 4329 c-154 -13 -313 -71 -453 -166 -141 -96 -285 -278 -351
-444 -46 -119 -60 -194 -60 -334 0 -115 3 -140 28 -215 48 -145 126 -291 232
-435 72 -97 85 -127 140 -315 57 -193 83 -239 163 -281 l54 -29 342 0 343 0
52 28 c85 44 105 78 164 274 59 195 78 236 170 363 91 125 191 327 217 440 18
75 20 109 16 205 -12 246 -106 458 -279 631 -205 205 -478 303 -778 278z m305
-204 c258 -71 472 -286 546 -551 33 -114 32 -273 0 -364 -47 -129 -111 -245
-208 -375 -74 -100 -106 -171 -158 -351 -31 -108 -53 -165 -67 -176 -18 -16
-49 -18 -324 -18 -277 0 -306 2 -322 18 -9 9 -37 85 -61 167 -51 179 -90 263
-170 372 -76 103 -164 259 -190 339 -45 135 -46 262 -5 403 78 271 306 482
588 547 79 18 288 12 371 -11z"/>
<path d="M3072 4060 c-275 -72 -482 -317 -508 -602 -7 -77 -7 -77 25 -108 26
-26 37 -31 59 -25 49 12 62 34 72 129 11 97 35 163 88 244 86 132 268 232 423
232 75 0 116 77 69 128 -18 19 -31 22 -88 21 -37 0 -100 -9 -140 -19z"/>
<path d="M1495 3385 c-14 -13 -25 -31 -25 -40 0 -24 27 -72 45 -79 9 -3 124
-6 256 -6 l240 0 24 25 c14 13 25 36 25 50 0 14 -11 37 -25 50 l-24 25 -246 0
-246 0 -24 -25z"/>
<path d="M4401 3384 c-28 -35 -27 -75 2 -102 23 -21 30 -22 276 -22 l252 0 24
25 c14 13 25 36 25 50 0 14 -11 37 -25 50 l-24 25 -255 0 -255 0 -20 -26z"/>
<path d="M2158 2403 c-184 -183 -193 -199 -143 -248 48 -49 64 -40 247 143
183 183 192 199 143 247 -48 49 -64 40 -247 -142z"/>
<path d="M4067 2563 c-24 -6 -50 -59 -42 -86 9 -27 312 -335 343 -348 47 -18
111 36 98 84 -6 24 -302 329 -337 347 -18 10 -32 11 -62 3z"/>
<path d="M2840 1985 l0 -55 380 0 380 0 0 55 0 55 -380 0 -380 0 0 -55z"/>
<path d="M2842 1813 l3 -58 378 -3 377 -2 0 60 0 60 -380 0 -381 0 3 -57z"/>
<path d="M2840 1635 l0 -55 380 0 380 0 0 55 0 55 -380 0 -380 0 0 -55z"/>
<path d="M2850 1508 c0 -25 53 -78 102 -101 103 -48 231 -65 357 -47 111 15
188 45 234 90 72 72 82 70 -328 70 -269 0 -365 -3 -365 -12z"/>
</g>
</svg>
