<?xml version="1.0" standalone="no"?>
<!DOCTYPE svg PUBLIC "-//W3C//DTD SVG 20010904//EN"
 "http://www.w3.org/TR/2001/REC-SVG-20010904/DTD/svg10.dtd">
<svg version="1.0" xmlns="http://www.w3.org/2000/svg"
 width="800.000000pt" height="800.000000pt" viewBox="0 0 800.000000 800.000000"
 preserveAspectRatio="xMidYMid meet">

<g transform="translate(0.000000,800.000000) scale(0.100000,-0.100000)"
fill="#000000" stroke="none">
<path d="M3825 6514 c-122 -10 -295 -36 -389 -59 -1030 -243 -1777 -1047
-1943 -2087 -25 -159 -25 -576 0 -734 63 -398 199 -747 415 -1059 369 -534
951 -916 1587 -1044 189 -38 276 -46 505 -45 243 1 358 13 565 59 748 167
1371 656 1706 1340 122 251 190 461 236 732 26 154 25 587 -1 758 -144 945
-795 1714 -1705 2015 -150 49 -330 91 -481 110 -90 12 -411 21 -495 14z m337
-244 c753 -54 1428 -469 1810 -1113 232 -390 343 -864 310 -1320 -76 -1046
-852 -1900 -1891 -2078 -64 -11 -186 -24 -271 -30 -801 -51 -1597 353 -2043
1036 -340 522 -448 1181 -293 1791 76 301 241 628 440 874 393 487 984 793
1620 839 161 12 168 12 318 1z"/>
<path d="M2760 5458 c-76 -22 -158 -108 -180 -189 -7 -24 -9 -468 -8 -1291 l3
-1253 30 -55 c34 -61 97 -114 155 -130 26 -7 436 -9 1262 -8 l1223 3 45 27
c60 35 94 72 122 133 l23 50 0 1245 c0 1418 7 1307 -85 1399 -87 87 15 81
-1349 80 -772 0 -1219 -4 -1241 -11z m2425 -233 l25 -24 0 -733 c0 -403 0
-944 0 -1203 l0 -470 -25 -25 -25 -25 -1133 -3 c-794 -2 -1143 0 -1170 8 -72
21 -67 -73 -68 1231 -1 646 -1 1184 0 1197 1 13 12 34 26 47 l24 25 1161 0
1161 0 24 -25z"/>
<path d="M3620 4992 c-16 -3 -89 -68 -202 -180 l-178 -175 -63 61 c-68 65
-102 81 -136 63 -30 -16 -53 -66 -45 -97 4 -14 52 -72 108 -130 118 -121 137
-127 203 -71 79 67 406 403 415 426 12 33 -6 75 -40 92 -33 16 -32 16 -62 11z"/>
<path d="M3916 4631 c-57 -8 -76 -29 -76 -83 0 -28 7 -46 25 -64 l25 -25 526
3 526 3 19 24 c28 35 25 92 -7 122 l-26 24 -481 1 c-265 1 -504 -2 -531 -5z"/>
<path d="M3584 4291 c-21 -16 -106 -97 -189 -180 -82 -83 -153 -151 -157 -151
-4 0 -35 27 -69 60 -52 52 -66 60 -98 60 -42 0 -64 -19 -75 -63 -9 -40 5 -61
117 -169 82 -81 106 -98 131 -98 26 0 60 30 253 223 251 250 259 263 205 317
-38 38 -68 38 -118 1z"/>
<path d="M3860 3935 c-34 -36 -32 -87 3 -123 l27 -27 519 0 519 0 26 24 c35
33 36 92 1 126 l-24 25 -524 0 -524 0 -23 -25z"/>
<path d="M3574 3602 c-27 -22 -114 -106 -194 -186 l-144 -145 -67 64 c-75 73
-109 83 -146 43 -53 -59 -41 -88 96 -222 91 -89 103 -98 128 -91 30 7 67 39
251 219 182 178 226 231 226 272 0 41 -26 71 -70 80 -25 5 -38 -1 -80 -34z"/>
<path d="M3879 3275 c-49 -27 -58 -105 -17 -142 19 -17 53 -18 550 -18 l530 0
19 24 c28 35 25 92 -7 122 l-26 24 -511 2 c-432 2 -516 0 -538 -12z"/>
</g>
</svg>
